<?xml version="1.0" standalone="no"?>
<!DOCTYPE svg PUBLIC "-//W3C//DTD SVG 20010904//EN"
 "http://www.w3.org/TR/2001/REC-SVG-20010904/DTD/svg10.dtd">
<svg version="1.0" xmlns="http://www.w3.org/2000/svg"
 width="32.000000pt" height="32.000000pt" viewBox="0 0 32.000000 32.000000"
 preserveAspectRatio="xMidYMid meet">

<g transform="translate(0.000000,32.000000) scale(0.100000,-0.100000)"
fill="#000000" stroke="none">
<path d="M105 283 c-11 -7 -14 -13 -9 -13 6 0 16 6 24 13 8 6 6 2 -4 -10 -10
-13 -23 -20 -28 -17 -5 3 -7 -6 -4 -19 3 -17 -1 -27 -11 -31 -13 -5 -13 -9 -2
-22 17 -21 20 -44 6 -44 -6 0 -2 -7 9 -16 18 -14 18 -15 -3 -4 -13 6 -23 15
-23 21 0 6 -4 8 -9 5 -13 -9 -34 22 -27 39 3 9 2 13 -4 10 -14 -9 -4 -93 14
-119 44 -62 67 -76 124 -76 112 0 191 140 129 231 -40 59 -135 87 -182 52z
m-59 -160 c-10 -11 -19 -7 -22 10 -2 15 0 16 12 6 8 -6 12 -14 10 -16z"/>
<path d="M46 242 c-3 -5 1 -9 9 -9 8 0 15 4 15 9 0 4 -4 8 -9 8 -6 0 -12 -4
-15 -8z"/>
</g>
</svg>
